<svg id="Livello_1" data-name="Livello 1" xmlns="http://www.w3.org/2000/svg" xmlns:xlink="http://www.w3.org/1999/xlink" viewBox="0 0 380 294"><defs><linearGradient id="Sfumatura_senza_nome_3" x1="1279.79" y1="-401.41" x2="1281.73" y2="-403.35" gradientTransform="matrix(50, 50, 50, -50, -43771.96, -84010.79)" gradientUnits="userSpaceOnUse"><stop offset="0" stop-color="#81c1eb"/><stop offset="1" stop-color="#3b97d3"/></linearGradient><linearGradient id="Sfumatura_senza_nome_3-2" x1="1259.95" y1="-401.32" x2="1259.95" y2="-399.38" gradientTransform="matrix(55.14, 0, 0, -55.14, -69328.98, -21929.11)" xlink:href="#Sfumatura_senza_nome_3"/><linearGradient id="Sfumatura_senza_nome_4" x1="209" y1="234.79" x2="209" y2="206.31" gradientUnits="userSpaceOnUse"><stop offset="0" stop-color="#091d29"/><stop offset="1" stop-color="#0d334d"/></linearGradient><linearGradient id="Sfumatura_senza_nome_4-2" x1="232.47" y1="234.4" x2="232.47" y2="206.7" xlink:href="#Sfumatura_senza_nome_4"/><linearGradient id="Sfumatura_senza_nome_4-3" x1="258.77" y1="234.83" x2="258.77" y2="206.27" xlink:href="#Sfumatura_senza_nome_4"/><linearGradient id="Sfumatura_senza_nome_4-4" x1="293.01" y1="234.4" x2="293.01" y2="206.7" xlink:href="#Sfumatura_senza_nome_4"/><linearGradient id="Sfumatura_senza_nome_4-5" x1="318.04" y1="234.4" x2="318.04" y2="206.7" xlink:href="#Sfumatura_senza_nome_4"/></defs><polygon id="Rettangolo_2" data-name="Rettangolo 2" points="195.34 195.93 330 195.93 330 244 147.18 244 195.34 195.93" style="fill:#fff"/><polygon id="Rettangolo_1" data-name="Rettangolo 1" points="147.18 50 244.36 147 147.18 244 50 147 147.18 50" style="fill:url(#Sfumatura_senza_nome_3)"/><path d="M147.18,210.78A63.78,63.78,0,1,1,211.08,147,63.91,63.91,0,0,1,147.18,210.78Zm0-117.27A53.49,53.49,0,1,0,200.77,147,53.6,53.6,0,0,0,147.18,93.51Z" style="fill:#fff"/><ellipse cx="147.18" cy="147" rx="53.59" ry="53.49" style="fill:url(#Sfumatura_senza_nome_3-2)"/><g style="isolation:isolate"><path d="M123.27,162.25h-7.1v-3.48h-.09a7.92,7.92,0,0,1-7.24,4.08,7.54,7.54,0,0,1-5.56-2,7.15,7.15,0,0,1-2-5.33q0-7.06,8.37-8.15l6.6-.88q0-4-4.32-4a14.69,14.69,0,0,0-8.25,2.59v-5.64a18.35,18.35,0,0,1,4.28-1.42,22.6,22.6,0,0,1,4.95-.62q10.38,0,10.39,10.35Zm-7-9.85v-1.63l-4.41.57q-3.66.47-3.66,3.29a2.71,2.71,0,0,0,.89,2.09,3.42,3.42,0,0,0,2.41.82,4.43,4.43,0,0,0,3.44-1.45A5.26,5.26,0,0,0,116.22,152.4Z" style="fill:#fff"/><path d="M147.61,161.38c-1.69,1-4.14,1.47-7.33,1.47a12.41,12.41,0,0,1-9.07-3.39,11.72,11.72,0,0,1-3.46-8.74q0-6.18,3.71-9.74t9.93-3.57q4.31,0,6.22,1.14v6.35a8.55,8.55,0,0,0-5.24-1.76,6.94,6.94,0,0,0-5.12,1.88,7.06,7.06,0,0,0-1.88,5.2,6.91,6.91,0,0,0,1.8,5.06,6.64,6.64,0,0,0,5,1.84,9.93,9.93,0,0,0,5.48-1.76Z" style="fill:#fff"/><path d="M191.1,162.25h-7.48V148.42c0-3.52-1.29-5.28-3.89-5.28a3.57,3.57,0,0,0-3,1.59,6.53,6.53,0,0,0-1.16,4v13.57h-7.5v-14c0-3.42-1.27-5.14-3.82-5.14a3.67,3.67,0,0,0-3.07,1.52,6.63,6.63,0,0,0-1.15,4.12v13.47h-7.5V138H160v3.79h.09a9.21,9.21,0,0,1,7.86-4.38,7,7,0,0,1,7,4.52,9,9,0,0,1,8.16-4.52q7.94,0,7.93,9.76Z" style="fill:#fff"/></g><path d="M197,230l3.29-4.12A18.54,18.54,0,0,0,205,229a11.89,11.89,0,0,0,4.74,1,7.85,7.85,0,0,0,4.12-1,2.88,2.88,0,0,0,1.54-2.54,2.64,2.64,0,0,0-1-2.21,8.35,8.35,0,0,0-3.51-1.19l-5.51-.95a9.41,9.41,0,0,1-5.41-2.49,6.73,6.73,0,0,1-1.85-4.9,7.32,7.32,0,0,1,3-6.14,12.86,12.86,0,0,1,8-2.25,19,19,0,0,1,6.09,1,17.22,17.22,0,0,1,5.37,2.85l-3.09,4.27A17.26,17.26,0,0,0,213,212a12.38,12.38,0,0,0-4.4-.82,7.07,7.07,0,0,0-3.69.85,2.6,2.6,0,0,0-1.39,2.28,2.37,2.37,0,0,0,.92,2,6.67,6.67,0,0,0,3,1l5.23.87a11.53,11.53,0,0,1,6.2,2.63,6.73,6.73,0,0,1,2.08,5.16,7.68,7.68,0,0,1-3.19,6.45,13.74,13.74,0,0,1-8.5,2.41,17.9,17.9,0,0,1-6.56-1.26A18.87,18.87,0,0,1,197,230Z" style="fill:url(#Sfumatura_senza_nome_4)"/><path d="M229.59,234.4V206.7h5.75v27.7Z" style="fill:url(#Sfumatura_senza_nome_4-2)"/><path d="M273.07,220.59a15.22,15.22,0,0,1-1.05,5.68,13.59,13.59,0,0,1-2.89,4.51,13.36,13.36,0,0,1-4.42,3,14.05,14.05,0,0,1-5.55,1.09,15.26,15.26,0,0,1-5.79-1.1,14.25,14.25,0,0,1-7.77-7.56,14.48,14.48,0,0,1,0-11.24,14,14,0,0,1,3.09-4.53,14.25,14.25,0,0,1,4.66-3,14.9,14.9,0,0,1,5.74-1.11,15.57,15.57,0,0,1,6.5,1.38,13.86,13.86,0,0,1,5,3.8l-4,3.68a10.19,10.19,0,0,0-3.39-2.67,9.37,9.37,0,0,0-4.14-.93,8.7,8.7,0,0,0-3.47.69,8.55,8.55,0,0,0-2.77,1.9A8.63,8.63,0,0,0,251,217a10,10,0,0,0,0,7.18A8.52,8.52,0,0,0,252.9,227a8.7,8.7,0,0,0,2.83,1.9,9,9,0,0,0,3.51.69,8.08,8.08,0,0,0,5.05-1.62,6.76,6.76,0,0,0,2.64-4.16h-8.21v-5h14.35Z" style="fill:url(#Sfumatura_senza_nome_4-3)"/><path d="M278.34,234.4l11.42-27.7h6.66l11.25,27.7h-6.22l-2.81-7.28H287.18l-2.85,7.28ZM289,222.53h7.92L293,212.32Z" style="fill:url(#Sfumatura_senza_nome_4-4)"/><path d="M315.16,234.4V206.7h5.75v27.7Z" style="fill:url(#Sfumatura_senza_nome_4-5)"/></svg>