<svg viewBox="0 0 32 32" xmlns="http://www.w3.org/2000/svg"><path d="m21.87 7.84-1.74-1-4.13 7.16a2 2 0 1 0 2 2 2 2 0 0 0 -.27-1z"/><path d="m16 2a14 14 0 1 0 14 14 14 14 0 0 0 -14-14zm0 2a12 12 0 0 1 11.17 7.65 25.69 25.69 0 0 0 -3.69-1.5l-1 1.77a22.7 22.7 0 0 1 5.41 2.39 11.05 11.05 0 0 1 0 3.38 22.92 22.92 0 0 1 -11.89 3.31 22.92 22.92 0 0 1 -11.87-3.31 11.05 11.05 0 0 1 0-3.38 22.8 22.8 0 0 1 10.87-3.31v-2a25 25 0 0 0 -10.17 2.6 12 12 0 0 1 11.17-7.6zm0 24a12 12 0 0 1 -11.17-7.65 24.88 24.88 0 0 0 11.17 2.65 24.88 24.88 0 0 0 11.17-2.65 12 12 0 0 1 -11.17 7.65z"/><path d="m0 0h32v32h-32z" fill="none"/></svg>